<?xml version="1.0" encoding="utf-8"?>
<!-- Generator: Adobe Illustrator 16.0.0, SVG Export Plug-In . SVG Version: 6.00 Build 0)  -->
<!DOCTYPE svg PUBLIC "-//W3C//DTD SVG 1.1//EN" "http://www.w3.org/Graphics/SVG/1.1/DTD/svg11.dtd">
<svg version="1.1" id="Calque_1" xmlns="http://www.w3.org/2000/svg" xmlns:xlink="http://www.w3.org/1999/xlink" x="0px" y="0px"
	 width="108.789px" height="21.001px" viewBox="0 0 108.789 21.001" enable-background="new 0 0 108.789 21.001"
	 xml:space="preserve">
<g>
	<g>
		<g>
			<path fill="#FFFFFF" d="M2.409,20.668h3.058V8.707h3.77V6.214h-3.77V5.378c0-1.849,0.96-2.786,2.852-2.786h1.117V0H8.021
				C4.349,0,2.409,1.928,2.409,5.576v0.638H0v2.493h2.409V20.668z"/>
		</g>
		<g>
			<path fill="#FFFFFF" d="M17.706,5.885c-3.829,0-6.303,2.474-6.303,6.303v2.504c0,3.832,2.474,6.31,6.303,6.31
				c3.831,0,6.306-2.478,6.306-6.31v-2.504C24.011,8.358,21.536,5.885,17.706,5.885z M17.706,18.404
				c-1.953,0-3.216-1.354-3.216-3.447v-3.032c0-2.096,1.263-3.448,3.216-3.448c1.956,0,3.219,1.352,3.219,3.448v3.032
				C20.924,17.05,19.661,18.404,17.706,18.404z"/>
		</g>
		<path fill="#FFFFFF" d="M34.169,5.885c-1.61,0-3.273,0.349-4.146,1.747l-0.276-1.418h-2.543v14.454h3.087v-8.411
			c0-2.138,1.406-3.517,3.579-3.517c0.38,0,0.781,0.059,1.082,0.112V5.954C34.69,5.885,34.404,5.885,34.169,5.885z"/>
		<path fill="#FFFFFF" d="M54.368,5.901c-0.135-0.013-0.261-0.017-0.383-0.017c-0.01,0-0.02,0-0.029,0c0,0-0.005,0-0.007,0
			c-0.006,0-0.015,0-0.02,0c-1.61,0-3.178,0.165-4.556,1.816c-0.128,0.151-0.235,0.293-0.327,0.424
			c-0.844-1.388-2.227-2.148-4.044-2.224c-0.074-0.007-0.14-0.01-0.209-0.013c-0.033,0-0.062-0.003-0.094-0.003
			c-0.015,0-0.026,0-0.04,0c-0.031,0-0.064,0-0.094,0c-1.608,0-3.271,0.349-4.145,1.747l-0.278-1.418H37.6v14.454h3.087v-8.743
			c0-1.991,1.309-3.382,3.183-3.382c1.812,0,2.985,1.299,2.985,3.312v8.812h3.087V11.82c0.04-1.931,1.349-3.279,3.186-3.279
			c1.832,0,3.015,1.299,3.015,3.312v8.812H59.2v-8.944C59.2,8.224,57.4,6.079,54.368,5.901z"/>
		<path fill="#FFFFFF" d="M72.745,6.214h-0.026l-0.279,1.418c-0.873-1.398-2.535-1.747-4.146-1.747c-0.021,0-0.048,0-0.067,0
			c-0.013,0-0.021,0-0.031,0c-0.041,0-0.078,0.003-0.117,0.003c-0.064,0-0.125,0.003-0.191,0.01c-3.223,0.135-5.14,2.359-5.14,6.027
			v3.032c0,3.675,1.927,5.904,5.161,6.029c0.014,0.004,0.025,0.004,0.042,0.004c0.082,0,0.161,0.01,0.245,0.01
			c0.021,0,0.041-0.003,0.062-0.003c0.012,0,0.026,0,0.036,0c1.61,0,3.272-0.353,4.146-1.747l0.278,1.418h0.027h2.514v-5.566v-3.324
			V6.214H72.745z M65.837,15.023v-3.168c0-2.014,1.211-3.312,3.084-3.312c1.935,0,3.283,1.417,3.283,3.45v2.864
			c0,2.051-1.349,3.48-3.283,3.48C67.048,18.339,65.837,17.036,65.837,15.023z"/>
		<g>
			<path fill="#FFFFFF" d="M78.075,8.707h2.413v6.385c0,3.648,1.939,5.576,5.609,5.576h1.414v-2.596h-1.113
				c-1.895,0-2.854-0.936-2.854-2.783V8.707h3.771V6.214h-3.771V1.951l-3.056,0.888v3.375h-2.413V8.707z"/>
		</g>
	</g>
	<g>
		<g>
			<path fill="#FFFFFF" d="M97.105,20.668h11.684v-2.493h-7.943l7.78-10.155V6.214H97.37V8.71h7.515l-7.777,10.151v1.807H97.105z"/>
		</g>
		<rect x="90.859" y="6.214" fill="#FFFFFF" width="2.897" height="2.888"/>
		<rect x="90.859" y="11.993" fill="#FFFFFF" width="2.897" height="2.892"/>
		<rect x="90.859" y="17.775" fill="#FFFFFF" width="2.897" height="2.893"/>
	</g>
</g>
</svg>
